<svg width="20" height="20" fill="none" xmlns="http://www.w3.org/2000/svg"><path d="M13.333 3.333c.775 0 1.163 0 1.48.085a2.5 2.5 0 0 1 1.768 1.768c.086.318.086.706.086 1.48v7.667c0 1.4 0 2.1-.273 2.635a2.5 2.5 0 0 1-1.092 1.093c-.535.272-1.235.272-2.635.272H7.333c-1.4 0-2.1 0-2.635-.272a2.5 2.5 0 0 1-1.092-1.093c-.273-.535-.273-1.235-.273-2.635V6.667c0-.775 0-1.163.085-1.48a2.5 2.5 0 0 1 1.768-1.769c.318-.085.706-.085 1.48-.085M10 14.167v-5m-2.5 2.5h5M8 5h4c.467 0 .7 0 .878-.09a.833.833 0 0 0 .364-.365c.091-.178.091-.412.091-.878V3c0-.467 0-.7-.09-.878a.833.833 0 0 0-.365-.365c-.178-.09-.411-.09-.878-.09H8c-.467 0-.7 0-.878.09a.833.833 0 0 0-.365.365c-.09.178-.09.411-.09.878v.667c0 .466 0 .7.09.878.08.157.208.284.365.364C7.3 5 7.533 5 8 5z" stroke="#525866" stroke-width="1.5" stroke-linecap="round" stroke-linejoin="round"/></svg>